# xmcd CD database file
#
# Track frame offsets:
#	150
#	30590
#	47912
#	73285
#	85752
#	105187
#	122672
#	132267
#	145685
#	168470
#
# Disc length: 2697 seconds
#
# Revision: 0
# Processed by: cddbd v1.5.1PL0 Copyright (c) Steve Scherf et al.
# Submitted via: CDex 1.51
#
DISCID=830a870a
DTITLE=TEARDROPS - Look Around
DYEAR=1991
DGENRE=Rock
TTITLE0=終わりのダンス
TTITLE1=ここまでおいで
TTITLE2=オンボロ
TTITLE3=破かれたラブレター
TTITLE4=もう一度
TTITLE5=Let's Shake
TTITLE6=黒い夜
TTITLE7=みどりの中へ
TTITLE8=冷たい雨
TTITLE9=働け もっと
EXTD=YEAR: 1991.02/27
EXTT0=
EXTT1=
EXTT2=
EXTT3=
EXTT4=
EXTT5=
EXTT6=
EXTT7=
EXTT8=
EXTT9=
PLAYORDER=
